PathFileType  4	(X/Y/Z) C:\Users\antoi\Documents\MyRepositories\mobilecap\ResultsAnalysis
DataRate	CameraRate	NumFrames	NumMarkers	Units	OrigDataRate	OrigDataStartFrame	OrigNumFrames
100.0	100.0	6	51	mm	100.0	175	1399
Frame#	Time	r_knee			r_shank_antsup			r_ankle			r_calc			r_5meta			r_toe			L_knee			L_shank_antsup			L_ankle			L_calc			L_5meta			L_toe			r_sh2			r_sh3			r_sh4			L_sh2			L_sh3			r_thigh1			r_thigh2			r_thigh3			r_thigh4			r_thigh5			L_thigh1			L_thigh2			L_thigh3			L_thigh4			r.ASIS			r.PSIS			L.ASIS			L.PSIS			C7			R_Shoulder			L_Shoulder			R_Sternum			L_Sternum			R_humerus			R_elbow_med			R_elbow_lat			R_forearm			R_wrist_radius			R_wrist_ulna			L_humerus			L_elbow_med			L_elbow_lat			L_forearm			L_wrist_radius			L_wrist_ulna			R_HJC			L_HJC			R_HJC_reg			L_HJC_reg			
		X1	Y1	Z1	X2	Y2	Z2	X3	Y3	Z3	X4	Y4	Z4	X5	Y5	Z5	X6	Y6	Z6	X7	Y7	Z7	X8	Y8	Z8	X9	Y9	Z9	X10	Y10	Z10	X11	Y11	Z11	X12	Y12	Z12	X13	Y13	Z13	X14	Y14	Z14	X15	Y15	Z15	X16	Y16	Z16	X17	Y17	Z17	X18	Y18	Z18	X19	Y19	Z19	X20	Y20	Z20	X21	Y21	Z21	X22	Y22	Z22	X23	Y23	Z23	X24	Y24	Z24	X25	Y25	Z25	X26	Y26	Z26	X27	Y27	Z27	X28	Y28	Z28	X29	Y29	Z29	X30	Y30	Z30	X31	Y31	Z31	X32	Y32	Z32	X33	Y33	Z33	X34	Y34	Z34	X35	Y35	Z35	X36	Y36	Z36	X37	Y37	Z37	X38	Y38	Z38	X39	Y39	Z39	X40	Y40	Z40	X41	Y41	Z41	X42	Y42	Z42	X43	Y43	Z43	X44	Y44	Z44	X45	Y45	Z45	X46	Y46	Z46	X47	Y47	Z47	X48	Y48	Z48	X49	Y49	Z49	X50	Y50	Z50	X51	Y51	Z51	

175	1.74000000	-241.52167	506.49726	-429.23959	-210.35609	411.60998	-423.86068	-294.85696	91.64900	-419.19708	-356.81453	57.37849	-465.06460	-171.70405	42.53325	-384.77987	-141.04035	72.39947	-440.18395	-233.13628	509.95845	-780.19849	-200.77189	423.50022	-778.45569	-285.29379	96.67881	-800.89538	-357.14307	51.36993	-754.07679	-180.90587	40.71745	-843.34548	-133.44359	66.23902	-788.02442	-224.13754	298.84955	-419.33783	-278.68006	419.36957	-391.72431	-298.76794	307.15640	-384.55024	-281.49242	447.80191	-814.75613	-297.70147	327.71529	-829.55516	-197.27608	790.46098	-421.63172	-186.68180	679.56214	-428.71173	-238.98157	648.04167	-400.47328	-309.76088	774.54160	-413.54472	-290.23421	660.59235	-420.76333	-160.23393	760.67171	-777.53457	-146.10708	621.54090	-762.29056	-261.22030	747.54174	-818.64206	-250.25349	615.91238	-795.06050	-176.92733	981.39107	-476.89265	-377.36034	995.24370	-577.62884	-159.93868	983.97277	-732.97666	-368.92487	995.16225	-668.79980	-372.20217	1457.39365	-615.32377	-306.66967	1434.93490	-446.12439	-284.39834	1431.84068	-766.29680	-239.35472	1396.00185	-582.64255	-239.47043	1397.03703	-630.15885	-287.34103	1306.16546	-383.61456	-377.19778	1113.22328	-435.49312	-382.73314	1119.66065	-361.52585	-287.34929	1129.28447	-351.80990	-131.97288	1153.46729	-394.53478	-136.94762	1106.19039	-383.10012	-267.17814	1292.28165	-832.05955	-350.78007	1101.86023	-786.67412	-338.40328	1115.17607	-870.60452	-263.31666	1131.90908	-869.44314	-109.60822	1165.49092	-813.80092	-110.96433	1116.89940	-829.86774	-249.29628	886.94743	-511.08048	-233.43821	889.55756	-699.96033	-241.67203	899.00837	-519.24559	-226.06640	898.85764	-687.91931	
176	1.75000000	-241.77839	506.33507	-429.21421	-210.47951	411.53238	-423.89896	-294.91728	91.60230	-419.30830	-356.85182	57.32443	-465.10098	-171.72437	42.52766	-384.77822	-141.07073	72.43475	-440.18308	-233.46549	509.80609	-780.21218	-200.84838	423.46338	-778.69191	-285.32289	96.60241	-800.88426	-357.15726	51.33540	-754.12925	-180.91583	40.68530	-843.36329	-133.47171	66.22235	-788.07169	-224.35788	298.72045	-419.28118	-278.81628	419.20342	-391.90672	-298.89449	307.09713	-384.62998	-281.58032	447.67444	-814.76394	-297.80858	327.62805	-829.52867	-198.67930	790.52231	-421.62527	-187.70790	679.62172	-428.69700	-239.89147	647.97432	-400.42548	-311.13803	774.15249	-413.66786	-291.12903	660.17479	-420.88993	-161.72274	760.90546	-777.94572	-147.05622	621.67517	-762.70311	-262.76975	747.21064	-818.47849	-251.19775	615.64060	-795.18433	-178.69879	981.21284	-477.08531	-379.37717	995.05683	-577.58419	-161.80882	983.93318	-733.28204	-370.65367	995.11825	-668.91304	-372.04109	1457.85821	-615.30428	-306.11307	1435.19199	-446.46392	-284.37142	1431.87561	-766.44898	-239.38765	1395.97041	-582.83130	-239.63239	1396.90526	-630.36397	-286.46998	1306.23848	-384.00097	-377.68893	1113.75664	-434.98403	-382.94184	1120.24816	-360.93738	-287.41046	1129.43699	-351.66075	-132.00402	1152.44310	-394.63195	-137.29976	1105.22392	-383.19050	-266.88425	1292.19732	-831.89642	-351.24304	1101.90898	-786.61228	-338.28305	1115.16201	-870.64762	-263.27924	1131.72947	-869.34402	-109.49649	1165.08315	-814.10358	-111.09643	1116.34710	-829.67552	-251.07547	886.76742	-511.30331	-235.32299	889.50729	-700.19037	-243.68171	898.67043	-519.80104	-227.56856	898.78401	-688.50082	
177	1.76000000	-242.01265	506.31035	-429.13542	-210.59351	411.46775	-423.94854	-295.02829	91.52352	-419.38495	-356.90202	57.25846	-465.17388	-171.76739	42.55633	-384.79040	-141.11918	72.55320	-440.16128	-233.75765	509.64551	-780.19327	-200.93177	423.50261	-778.98149	-285.34277	96.53493	-800.86439	-357.16880	51.29872	-754.16220	-180.92737	40.66328	-843.37501	-133.48139	66.22829	-788.09254	-224.50628	298.59448	-419.24912	-278.94391	419.03905	-392.07880	-298.97793	307.06122	-384.66490	-281.65811	447.56701	-814.79423	-297.85522	327.54663	-829.57183	-200.21694	790.57704	-421.65626	-188.75992	679.68577	-428.69707	-240.86185	647.93341	-400.36177	-312.53614	773.67794	-413.83191	-292.07749	659.77932	-421.00986	-163.34493	761.08343	-778.29393	-148.02196	621.88876	-763.16037	-264.35980	747.02135	-818.67291	-252.21566	615.45999	-795.40978	-180.57764	981.08005	-477.21011	-380.81903	995.00424	-577.20423	-163.83311	983.69272	-733.24119	-372.51796	994.98135	-668.76406	-371.81799	1458.29343	-615.40843	-305.64918	1435.45632	-446.74682	-284.33910	1431.91010	-766.56795	-239.47725	1395.89613	-583.03839	-239.75082	1396.81687	-630.67438	-285.69592	1306.39257	-384.28695	-378.20319	1114.18923	-434.19122	-383.10480	1120.84796	-360.27694	-287.55793	1129.73545	-351.37974	-132.04736	1151.52372	-394.83991	-137.67305	1104.40541	-383.21485	-266.65914	1292.11205	-831.61833	-351.83709	1101.99855	-786.50628	-338.21453	1115.14548	-870.63691	-263.30292	1131.63357	-869.27093	-109.44764	1164.81230	-814.58009	-111.26504	1115.93406	-829.60064	-252.81151	886.65789	-511.17509	-237.28816	889.30838	-700.08217	-245.22803	898.68222	-519.47512	-229.93577	898.64016	-688.13041	
178	1.77000000	-242.27842	506.43179	-429.23841	-210.68827	411.39448	-424.04653	-295.15627	91.41286	-419.40554	-356.94505	57.20964	-465.17960	-171.83344	42.59224	-384.78744	-141.19713	72.77376	-440.08951	-234.07665	509.51603	-780.26678	-200.97833	423.48855	-779.16473	-285.36625	96.51343	-800.87460	-357.18179	51.26977	-754.18761	-180.93772	40.64707	-843.38007	-133.47793	66.25388	-788.10567	-224.56576	298.51739	-419.26854	-279.04111	418.93311	-392.20421	-299.04251	307.02076	-384.69308	-281.71795	447.49852	-814.88746	-297.86523	327.46029	-829.70865	-201.83568	790.51632	-421.82281	-189.88472	679.84496	-428.70725	-241.91264	647.79131	-400.42167	-313.99552	773.15466	-413.99878	-293.09771	659.41432	-421.13754	-165.01166	761.17427	-778.57383	-149.00846	622.13682	-763.51399	-266.05194	746.89499	-818.97313	-253.26886	615.32207	-795.65499	-182.48566	980.84768	-477.39222	-382.25775	995.06234	-576.82371	-165.97491	983.42833	-733.19721	-374.53749	994.94965	-668.41299	-371.55876	1458.77398	-615.67558	-305.20924	1435.73080	-446.86227	-284.33351	1431.99986	-766.65028	-239.54433	1395.81716	-583.24457	-239.83078	1396.77157	-630.98299	-285.06703	1306.57288	-384.54216	-378.66034	1114.54337	-433.57551	-383.13793	1121.44952	-359.59271	-287.70837	1130.07126	-351.05905	-132.13811	1150.67595	-395.15081	-138.04324	1103.68205	-383.31137	-266.51860	1292.05284	-831.33676	-352.15055	1102.28371	-786.57503	-338.16980	1115.11319	-870.58877	-263.36259	1131.62122	-869.25254	-109.35273	1164.65681	-815.07921	-111.37862	1115.66863	-829.59041	-254.64805	886.52125	-511.05420	-239.45481	889.13057	-699.98863	-246.80505	898.72856	-519.08945	-232.59419	898.52078	-687.68065	
179	1.78000000	-242.61968	506.47442	-429.50339	-210.72978	411.26883	-424.24710	-295.21928	91.33015	-419.39682	-356.98776	57.18606	-465.06287	-171.90662	42.63847	-384.75282	-141.29976	73.01310	-439.97343	-234.44229	509.46424	-780.55676	-200.92873	423.34582	-779.25693	-285.39089	96.48253	-800.86883	-357.19365	51.25178	-754.21104	-180.94286	40.64581	-843.38023	-133.49153	66.29488	-788.12091	-224.56552	298.43379	-419.40016	-279.07973	418.83857	-392.29838	-299.11088	306.98439	-384.70268	-281.69402	447.40754	-814.97935	-297.92997	327.36858	-829.86558	-203.50401	790.39366	-422.00800	-191.05156	679.92265	-428.91052	-242.93184	647.52102	-400.55319	-315.53990	772.57763	-414.17386	-294.15363	659.03727	-421.26787	-166.74452	761.25796	-778.89801	-150.04834	622.29638	-763.73088	-267.84798	746.59334	-818.98237	-254.36332	615.08595	-795.77012	-184.42398	980.48358	-477.70028	-384.38057	995.16524	-576.84881	-168.21808	983.17652	-733.36186	-376.70592	995.16148	-668.26722	-371.27749	1459.31787	-615.92227	-304.73773	1435.98973	-446.87178	-284.30398	1432.12222	-766.76015	-239.48340	1395.78283	-583.42743	-239.90082	1396.69591	-631.18536	-284.62965	1306.76065	-384.76789	-379.09338	1114.99251	-433.09309	-383.10191	1122.08434	-358.84929	-287.77870	1130.35221	-350.72418	-132.24740	1149.93669	-395.39711	-138.38504	1102.99444	-383.56727	-266.43387	1292.05512	-831.20235	-352.05294	1102.69354	-786.73537	-338.09838	1115.06371	-870.50207	-263.41904	1131.65508	-869.27502	-109.20010	1164.65584	-815.49795	-111.38535	1115.61288	-829.69446	-256.86049	886.32735	-511.24017	-241.90058	889.03406	-700.19213	-249.00930	898.47374	-519.46667	-234.86326	898.46719	-687.95725	
180	1.79000000	-242.90316	506.34667	-429.65186	-210.69231	411.09061	-424.46605	-295.22742	91.29206	-419.36361	-357.04970	57.14421	-464.93746	-171.96873	42.68400	-384.72801	-141.41328	73.19648	-439.83337	-234.78914	509.44806	-780.98285	-200.77100	423.15732	-779.46153	-285.40768	96.41884	-800.82313	-357.20314	51.23887	-754.21808	-180.94639	40.66561	-843.37369	-133.53353	66.34263	-788.12067	-224.53061	298.28436	-419.62711	-279.06120	418.69012	-392.40135	-299.09886	306.95654	-384.70784	-281.55953	447.23095	-814.98964	-298.04124	327.25578	-829.97744	-205.25881	790.27163	-422.18527	-192.21071	679.74971	-429.32728	-243.89518	647.15378	-400.65959	-317.19028	771.94092	-414.34802	-295.25161	658.59023	-421.33840	-168.57621	761.35360	-779.18516	-151.18270	622.40666	-763.94452	-269.66620	746.15201	-818.84125	-255.53171	614.73349	-795.81660	-186.54212	980.08699	-477.96065	-386.88740	995.36126	-577.02610	-170.60736	982.84608	-733.54354	-379.02722	995.51925	-668.33458	-370.95405	1459.86518	-616.00818	-304.22684	1436.21086	-446.82375	-284.11048	1432.18139	-766.90172	-239.41080	1395.65606	-583.60796	-239.95837	1396.56524	-631.29492	-284.33164	1306.98041	-384.88342	-379.51378	1115.49054	-432.32843	-383.06377	1122.67649	-358.11249	-287.74315	1130.56153	-350.38024	-132.28233	1149.33187	-395.49084	-138.63718	1102.38976	-383.82856	-266.40339	1292.07777	-831.17968	-351.86509	1103.10395	-786.73650	-337.94809	1115.00767	-870.41714	-263.42819	1131.74543	-869.36303	-109.05173	1164.85533	-815.91660	-111.28938	1115.78001	-829.98292	-259.44095	886.15463	-511.48897	-244.58720	888.93493	-700.44826	-251.63793	898.10840	-520.03709	-237.13921	898.40055	-688.43392	
